<svg width="25" height="24" viewBox="0 0 25 24" fill="none" xmlns="http://www.w3.org/2000/svg">
<path fill-rule="evenodd" clip-rule="evenodd" d="M4.9118 12.5C4.9118 11.9477 5.37231 11.5 5.94038 11.5L21.8832 11.5C22.4513 11.5 22.9118 11.9477 22.9118 12.5C22.9118 13.0523 22.4513 13.5 21.8832 13.5L5.94038 13.5C5.37231 13.5 4.9118 13.0523 4.9118 12.5Z" fill="white"/>
<path fill-rule="evenodd" clip-rule="evenodd" d="M15.2047 19.7071C14.8142 19.3166 14.8142 18.6834 15.2047 18.2929L20.9976 12.5L15.2047 6.70711C14.8142 6.31658 14.8142 5.68342 15.2047 5.29289C15.5952 4.90237 16.2284 4.90237 16.6189 5.29289L22.4118 11.0858C23.1929 11.8668 23.1929 13.1332 22.4118 13.9142L16.6189 19.7071C16.2284 20.0976 15.5952 20.0976 15.2047 19.7071Z" fill="white"/>
</svg>
