<svg width="24" height="24" viewBox="0 0 24 24" fill="none" xmlns="http://www.w3.org/2000/svg">
<path fill-rule="evenodd" clip-rule="evenodd" d="M4 12.5C4 11.9477 4.46051 11.5 5.02857 11.5L20.9714 11.5C21.5395 11.5 22 11.9477 22 12.5C22 13.0523 21.5395 13.5 20.9714 13.5L5.02857 13.5C4.46051 13.5 4 13.0523 4 12.5Z" fill="#120920"/>
<path fill-rule="evenodd" clip-rule="evenodd" d="M14.2929 19.7071C13.9024 19.3166 13.9024 18.6834 14.2929 18.2929L20.0858 12.5L14.2929 6.70711C13.9024 6.31658 13.9024 5.68342 14.2929 5.29289C14.6834 4.90237 15.3166 4.90237 15.7071 5.29289L21.5 11.0858C22.281 11.8668 22.281 13.1332 21.5 13.9142L15.7071 19.7071C15.3166 20.0976 14.6834 20.0976 14.2929 19.7071Z" fill="#120920"/>
</svg>
