<svg width="20" height="20" viewBox="0 0 20 20" fill="none" xmlns="http://www.w3.org/2000/svg">
<path fill-rule="evenodd" clip-rule="evenodd" d="M9.58333 3.33301C10.0436 3.33301 10.4167 3.71676 10.4167 4.19015L10.4167 17.4759C10.4167 17.9493 10.0436 18.333 9.58333 18.333C9.1231 18.333 8.75 17.9493 8.75 17.4759L8.75 4.19015C8.75 3.71676 9.1231 3.33301 9.58333 3.33301Z" fill="#120920"/>
<path fill-rule="evenodd" clip-rule="evenodd" d="M3.58002 11.9111C3.90545 11.5856 4.43309 11.5856 4.75853 11.9111L9.58594 16.7385L14.4133 11.9111C14.7388 11.5856 15.2664 11.5856 15.5919 11.9111C15.9173 12.2365 15.9173 12.7641 15.5919 13.0896L10.7644 17.917C10.1136 18.5679 9.0583 18.5679 8.40743 17.917L3.58002 13.0896C3.25458 12.7641 3.25458 12.2365 3.58002 11.9111Z" fill="#120920"/>
</svg>
