<svg width="50" height="50" viewBox="0 0 50 50" fill="none" xmlns="http://www.w3.org/2000/svg">
<path d="M34.075 4.46547C33.8614 4.66975 33.8543 5.00904 34.06 5.22333C36.4643 7.72975 37.9464 10.8505 38.4721 13.8405C38.5229 14.1312 38.8 14.3269 39.0921 14.2748C39.3829 14.224 39.5786 13.9462 39.5264 13.6548C38.975 10.5076 37.4236 7.18261 34.8329 4.48047C34.6279 4.26761 34.2886 4.26047 34.075 4.46547Z" fill="#8753D4"/>
<path d="M32.2869 2.93836C32.1033 3.1705 32.1441 3.50764 32.3762 3.6905C32.4969 3.7855 32.6148 3.88264 32.7319 3.9805C32.9562 4.16907 33.2948 4.14336 33.4869 3.91478C33.6776 3.68836 33.6484 3.34978 33.4212 3.15978C33.2955 3.05478 33.1684 2.9505 33.0391 2.84836C32.8062 2.6655 32.4691 2.70621 32.2869 2.93836Z" fill="#8753D4"/>
<path d="M5.66199 16.6592C5.66199 15.4763 5.78842 14.2934 6.03699 13.1463C6.10056 12.8577 5.91627 12.572 5.6277 12.5084C5.33913 12.452 5.05342 12.6292 4.98984 12.9184C4.72484 14.1406 4.58984 15.3992 4.58984 16.6584C4.58984 20.1399 5.85842 23.7099 8.16342 26.7113C8.34127 26.9434 8.67627 26.9913 8.91484 26.8099C9.14913 26.6299 9.19341 26.2934 9.01341 26.0584C6.8527 23.2441 5.66199 19.9056 5.66199 16.6592Z" fill="#8753D4"/>
<path d="M10.5366 27.8013C10.3281 27.5913 9.98877 27.5899 9.77877 27.7999C9.56949 28.0084 9.56806 28.3477 9.77735 28.5577C10.0623 28.8441 10.3581 29.1249 10.6645 29.3977C10.8823 29.5927 11.2209 29.5777 11.4209 29.3541C11.6173 29.1334 11.5988 28.7949 11.3773 28.5977C11.0888 28.3391 10.8081 28.0741 10.5366 27.8013Z" fill="#8753D4"/>
<path d="M37.1506 32.8177C36.8956 32.842 36.637 32.8549 36.3756 32.8549C36.0798 32.8549 35.8398 33.0949 35.8398 33.3906C35.8398 33.6863 36.0798 33.9263 36.3756 33.9263C36.672 33.9263 36.9648 33.912 37.2534 33.8834C37.5484 33.8549 37.7641 33.5934 37.7348 33.2992C37.707 33.0049 37.4448 32.782 37.1506 32.8177Z" fill="#8753D4"/>
<path d="M44.9636 25.437C44.6715 25.3942 44.4008 25.6013 44.36 25.8956C43.995 28.5613 42.3258 30.8606 39.895 32.0456C39.6286 32.1749 39.5186 32.4956 39.6479 32.7613C39.7779 33.0284 40.1 33.1377 40.3636 33.0084C43.1172 31.667 45.0079 29.0627 45.4215 26.0406C45.4615 25.7477 45.2565 25.4777 44.9636 25.437Z" fill="#8753D4"/>
<path d="M36.7241 18.5463C38.0813 10.432 31.4098 1.92487 22.2027 1.91772C22.2027 1.91772 22.1956 1.91772 22.1884 1.91772C14.0456 1.91772 7.44556 8.4963 7.44556 16.6606C7.44556 20.5034 9.31699 24.3749 12.567 27.2677C14.8313 29.2892 16.2884 32.032 16.4456 35.1606H15.2098C14.2027 35.1606 13.3884 35.9749 13.3884 36.982V38.8249C13.3884 39.332 13.5884 39.782 13.917 40.1106C13.5884 40.4391 13.3884 40.8963 13.3884 41.3963V43.2463C13.3884 44.2463 14.2027 45.0677 15.2098 45.0677H17.5956C18.3884 46.882 20.1813 48.082 22.1813 48.082C24.1884 48.082 25.9813 46.882 26.7813 45.0677H29.167C30.167 45.0677 30.9884 44.2463 30.9884 43.2463V41.3963C30.9884 40.8963 30.7813 40.4391 30.4527 40.1106C30.7813 39.782 30.9884 39.332 30.9884 38.8249V36.982C30.9884 35.9749 30.167 35.1606 29.167 35.1606H27.9241C28.0527 32.5106 29.1527 29.9749 31.0098 28.032C32.1098 29.8463 34.1027 31.0677 36.3741 31.0677C39.8313 31.0677 42.6456 28.2534 42.6456 24.7963C42.6456 21.4534 40.017 18.7249 36.7241 18.5463ZM22.1813 47.0106C20.767 47.0106 19.4813 46.2534 18.7741 45.0677H25.5956C24.8956 46.2534 23.6027 47.0106 22.1813 47.0106ZM29.917 43.2463C29.917 43.6606 29.5741 43.9963 29.167 43.9963H15.2098C14.7956 43.9963 14.4598 43.6606 14.4598 43.2463V41.3963C14.4598 40.982 14.7956 40.6463 15.2098 40.6463H29.167C29.5741 40.6463 29.917 40.982 29.917 41.3963V43.2463ZM29.167 36.232C29.5741 36.232 29.917 36.5677 29.917 36.982V38.8249C29.917 39.2392 29.5741 39.5749 29.167 39.5749H15.2098C14.7956 39.5749 14.4598 39.2392 14.4598 38.8249V36.982C14.4598 36.5677 14.7956 36.232 15.2098 36.232H29.167ZM21.6527 15.682C20.8098 15.9177 20.1813 16.682 20.1813 17.5963C20.1813 18.7034 21.0813 19.5963 22.1884 19.5963C23.2884 19.5963 24.1884 18.7034 24.1884 17.5963C24.1884 16.682 23.567 15.9177 22.7241 15.682V12.632L26.7098 18.932C26.7313 18.9534 26.7384 18.982 26.7384 19.0177V20.3249C26.7384 20.3963 26.6884 20.4534 26.6241 20.4677C25.3313 20.6892 24.2456 21.5534 23.717 22.7606H20.6527C20.1241 21.5534 19.0456 20.6892 17.7527 20.4677C17.6813 20.4534 17.6384 20.3963 17.6384 20.3249V19.0177C17.6384 18.982 17.6456 18.9534 17.6598 18.932L21.6527 12.632V15.682ZM22.1884 16.6677C22.7027 16.6677 23.117 17.082 23.117 17.5963C23.117 18.1106 22.7027 18.5249 22.1884 18.5249C21.6741 18.5249 21.2527 18.1106 21.2527 17.5963C21.2527 17.082 21.6741 16.6677 22.1884 16.6677ZM24.367 23.9034V25.8463H20.0027V23.9034C20.0027 23.8606 20.0384 23.832 20.0813 23.832H24.2956C24.3313 23.832 24.367 23.8606 24.367 23.9034ZM25.0527 26.9177V35.1606H19.317V26.9177H25.0527ZM30.5027 26.9963C28.2884 29.1677 26.9741 32.0891 26.8384 35.1606H26.1241V26.9177H26.7741C27.067 26.9177 27.3098 26.682 27.3098 26.382C27.3098 26.0892 27.067 25.8463 26.7741 25.8463H25.4384V23.9034C25.4384 23.4749 25.1956 23.1034 24.8456 22.9106C25.267 22.182 25.9741 21.6677 26.8027 21.5249C27.3884 21.4249 27.8098 20.9177 27.8098 20.3249V19.0177C27.8098 18.782 27.7456 18.5534 27.617 18.3606C27.617 18.3606 27.617 18.3606 27.617 18.3534L23.2027 11.3892C22.9813 11.0392 22.6027 10.8249 22.1884 10.8249C21.7741 10.8249 21.3884 11.0392 21.167 11.3892L16.7527 18.3534C16.6313 18.5534 16.567 18.782 16.567 19.0177V20.3249C16.567 20.9177 16.9884 21.4249 17.567 21.5249C18.4027 21.6677 19.1098 22.182 19.5241 22.9106C19.1741 23.1034 18.9313 23.4749 18.9313 23.9034V25.8463H17.6027C17.3098 25.8463 17.067 26.0892 17.067 26.382C17.067 26.682 17.3098 26.9177 17.6027 26.9177H18.2456V35.1606H17.5384C17.3884 31.8249 15.8098 28.7249 13.2813 26.4677C10.2527 23.7749 8.51699 20.2034 8.51699 16.6606C8.51699 9.10344 14.6241 2.98915 22.1884 2.98915H22.2027C30.8313 2.9963 37.0241 11.0606 35.6384 18.5677C32.4741 18.9392 30.1027 21.6606 30.1027 24.7963C30.1027 25.4392 30.2384 26.282 30.5027 26.9963ZM36.3741 29.9963C33.4813 29.9963 31.1741 27.632 31.1741 24.7963C31.1741 21.9463 33.5027 19.5963 36.3741 19.5963C39.2456 19.5963 41.5741 21.932 41.5741 24.7963C41.5741 27.6677 39.2456 29.9963 36.3741 29.9963Z" fill="#8753D4"/>
<path d="M36.3719 19.5962C33.5004 19.5962 31.1719 21.9462 31.1719 24.7962C31.1719 27.6319 33.479 29.9962 36.3719 29.9962C39.2433 29.9962 41.5719 27.6676 41.5719 24.7962C41.5719 21.9319 39.2433 19.5962 36.3719 19.5962ZM39.1076 25.0676L36.6004 27.0462C35.8933 27.6105 34.8719 27.4676 34.329 26.7676L33.3647 25.5176C32.8219 24.8176 32.9576 23.8033 33.6576 23.2605C34.3433 22.7319 35.3362 22.8462 35.8862 23.5176L37.1147 22.5462C37.8076 22.0033 38.8147 22.1105 39.3719 22.8105C39.9147 23.5033 39.8076 24.5176 39.1076 25.0676Z" fill="#8753D4" fill-opacity="0.6"/>
<path d="M26.7367 19.0178V20.3249C26.7367 20.3964 26.6867 20.4535 26.6224 20.4678C25.3296 20.6892 24.2439 21.5535 23.7153 22.7607H20.651C20.1224 21.5535 19.0439 20.6892 17.751 20.4678C17.6796 20.4535 17.6367 20.3964 17.6367 20.3249V19.0178C17.6367 18.9821 17.6439 18.9535 17.6581 18.9321L21.651 12.6321V15.6821C20.8081 15.9178 20.1796 16.6821 20.1796 17.5964C20.1796 18.7035 21.0796 19.5964 22.1867 19.5964C23.2867 19.5964 24.1867 18.7035 24.1867 17.5964C24.1867 16.6821 23.5653 15.9178 22.7224 15.6821V12.6321L26.7081 18.9321C26.7296 18.9535 26.7367 18.9821 26.7367 19.0178Z" fill="#8753D4" fill-opacity="0.6"/>
<path d="M24.3643 23.9035V25.8463H20V23.9035C20 23.8606 20.0357 23.832 20.0786 23.832H24.2929C24.3286 23.832 24.3643 23.8606 24.3643 23.9035Z" fill="#8753D4" fill-opacity="0.6"/>
<path d="M29.9142 36.9819V38.8248C29.9142 39.2391 29.5713 39.5748 29.1642 39.5748H15.207C14.7927 39.5748 14.457 39.2391 14.457 38.8248V36.9819C14.457 36.5677 14.7927 36.2319 15.207 36.2319H29.1642C29.5713 36.2319 29.9142 36.5677 29.9142 36.9819Z" fill="#8753D4" fill-opacity="0.6"/>
<path d="M29.9142 41.3962V43.2462C29.9142 43.6605 29.5713 43.9962 29.1642 43.9962H15.207C14.7927 43.9962 14.457 43.6605 14.457 43.2462V41.3962C14.457 40.982 14.7927 40.6462 15.207 40.6462H29.1642C29.5713 40.6462 29.9142 40.982 29.9142 41.3962Z" fill="#8753D4" fill-opacity="0.6"/>
<path d="M39.3718 22.8105C38.8147 22.1105 37.8075 22.0034 37.1147 22.5462L35.8861 23.5176C35.3361 22.8462 34.3432 22.7319 33.6575 23.2605C32.9575 23.8034 32.8218 24.8176 33.3647 25.5176L34.329 26.7676C34.8718 27.4676 35.8932 27.6105 36.6004 27.0462L39.1075 25.0676C39.8075 24.5176 39.9147 23.5034 39.3718 22.8105ZM38.4432 24.2248L35.9361 26.2105C35.7004 26.3962 35.3575 26.3462 35.179 26.1176L34.2147 24.8605C34.0361 24.6319 34.079 24.2891 34.3075 24.1105C34.5432 23.9319 34.879 23.9748 35.0647 24.2105L35.3647 24.6034C35.5361 24.8248 35.879 24.8891 36.1218 24.6962L37.779 23.3891C38.0218 23.1962 38.3575 23.2534 38.529 23.4748C38.7147 23.7105 38.6718 24.0462 38.4432 24.2248Z" fill="#8753D4"/>
</svg>
